<svg width="20" height="20" viewBox="0 0 20 20" fill="none" xmlns="http://www.w3.org/2000/svg">
<path d="M8.44097 0.927403C8.84722 1.13973 9.00694 1.64282 8.79514 2.05115L5.96181 7.50011H14.0382L11.2049 2.05115C10.9931 1.64282 11.1528 1.13973 11.559 0.927403C11.9688 0.715077 12.4722 0.873966 12.684 1.2824L15.9167 7.50011H18.8889C19.5035 7.50011 20 7.99664 20 8.61122C20 9.22581 19.5035 9.72233 18.8889 9.72233L17.0868 16.9272C16.809 17.9168 15.9514 18.6112 14.9306 18.6112H5.0382C4.04861 18.6112 3.15972 17.9168 2.9125 16.9272L1.11111 9.72233C0.497569 9.72233 0 9.22581 0 8.61122C0 7.99664 0.497569 7.50011 1.11111 7.50011H4.08333L7.31597 1.2824C7.52778 0.873966 8.03125 0.715077 8.44097 0.927403ZM5 11.1112C5.46181 11.1112 5.83333 10.7397 5.83333 10.2779C5.83333 9.81608 5.46181 9.44456 5 9.44456C4.53819 9.44456 4.16667 9.81608 4.16667 10.2779C4.16667 10.7397 4.53819 11.1112 5 11.1112ZM15 9.44456C14.5382 9.44456 14.1667 9.81608 14.1667 10.2779C14.1667 10.7397 14.5382 11.1112 15 11.1112C15.4618 11.1112 15.8333 10.7397 15.8333 10.2779C15.8333 9.81608 15.4618 9.44456 15 9.44456Z" fill="#929DAC"/>
</svg>
