<svg width="20" height="20" viewBox="0 0 20 20" fill="none" xmlns="http://www.w3.org/2000/svg">
<path d="M8.44097 0.927281C8.84722 1.13961 9.00694 1.6427 8.79514 2.05103L5.96181 7.49999H14.0382L11.2049 2.05103C10.9931 1.6427 11.1528 1.13961 11.559 0.927281C11.9688 0.714955 12.4722 0.873844 12.684 1.28228L15.9167 7.49999H18.8889C19.5035 7.49999 20 7.99652 20 8.6111C20 9.22568 19.5035 9.72221 18.8889 9.72221L17.0868 16.9271C16.809 17.9167 15.9514 18.6111 14.9306 18.6111H5.0382C4.04861 18.6111 3.15972 17.9167 2.9125 16.9271L1.11111 9.72221C0.497569 9.72221 0 9.22568 0 8.6111C0 7.99652 0.497569 7.49999 1.11111 7.49999H4.08333L7.31597 1.28228C7.52778 0.873844 8.03125 0.714955 8.44097 0.927281ZM5 11.1111C5.46181 11.1111 5.83333 10.7396 5.83333 10.2778C5.83333 9.81596 5.46181 9.44443 5 9.44443C4.53819 9.44443 4.16667 9.81596 4.16667 10.2778C4.16667 10.7396 4.53819 11.1111 5 11.1111ZM15 9.44443C14.5382 9.44443 14.1667 9.81596 14.1667 10.2778C14.1667 10.7396 14.5382 11.1111 15 11.1111C15.4618 11.1111 15.8333 10.7396 15.8333 10.2778C15.8333 9.81596 15.4618 9.44443 15 9.44443Z" fill="#253D4E"/>
</svg>
