<svg width="20" height="20" viewBox="0 0 20 20" fill="none" xmlns="http://www.w3.org/2000/svg">
<path d="M8.33301 6.875C8.33301 7.91016 7.49316 8.75 6.45801 8.75H2.70801C1.67246 8.75 0.833008 7.91016 0.833008 6.875V3.125C0.833008 2.08945 1.67246 1.25 2.70801 1.25H6.45801C7.49316 1.25 8.33301 2.08945 8.33301 3.125V6.875ZM8.33301 16.875C8.33301 17.9102 7.49316 18.75 6.45801 18.75H2.70801C1.67246 18.75 0.833008 17.9102 0.833008 16.875V13.125C0.833008 12.0898 1.67246 11.25 2.70801 11.25H6.45801C7.49316 11.25 8.33301 12.0898 8.33301 13.125V16.875ZM10.833 3.125C10.833 2.08945 11.6729 1.25 12.708 1.25H16.458C17.4932 1.25 18.333 2.08945 18.333 3.125V6.875C18.333 7.91016 17.4932 8.75 16.458 8.75H12.708C11.6729 8.75 10.833 7.91016 10.833 6.875V3.125ZM18.333 16.875C18.333 17.9102 17.4932 18.75 16.458 18.75H12.708C11.6729 18.75 10.833 17.9102 10.833 16.875V13.125C10.833 12.0898 11.6729 11.25 12.708 11.25H16.458C17.4932 11.25 18.333 12.0898 18.333 13.125V16.875Z" fill="#253D4E"/>
</svg>
