<svg width="20" height="20" viewBox="0 0 20 20" fill="none" xmlns="http://www.w3.org/2000/svg">
<path d="M13 9.66675V3.63862C13 2.56519 12.1031 1.66675 11 1.66675H2C0.898438 1.66675 0 2.56519 0 3.63862V9.63862C0 10.7667 0.898438 11.6667 2 11.6667L3 11.6671V13.3624C3 13.6123 3.28516 13.7568 3.48438 13.6085L6.07031 11.6672L11 11.6636C12.1031 11.6667 13 10.7667 13 9.66675ZM18 5.66675H14V9.66675C14 11.3189 12.6522 12.6664 11 12.6664L8 12.6665V13.6659C8 14.7674 8.89844 15.6377 9.97188 15.6377L13.9031 15.6375L16.4891 17.5787C16.7156 17.7542 17 17.6105 17 17.3605V15.6655H18C19.1016 15.6655 20 14.7671 20 13.6936V7.63862C20 6.56362 19.1031 5.66675 18 5.66675Z" fill="#929DAC"/>
</svg>
