<svg width="19" height="16" viewBox="0 0 19 16" fill="none" xmlns="http://www.w3.org/2000/svg">
<path d="M5.90428 15.2405C5.50161 15.2405 5.17161 15.1009 4.91428 14.8215C4.65695 14.5422 4.52795 14.2019 4.52728 13.8005V5.63355L2.85628 1.75955H1.48928C1.34728 1.75955 1.22828 1.71155 1.13228 1.61555C1.03628 1.51955 0.988281 1.40088 0.988281 1.25955C0.988281 1.11822 1.03628 0.999215 1.13228 0.902549C1.22828 0.805882 1.34695 0.758215 1.48828 0.759549H2.99328C3.15528 0.759549 3.30428 0.805549 3.44028 0.897549C3.57561 0.988882 3.67695 1.10655 3.74428 1.25055L5.06828 4.33655H18.1693C18.4779 4.33655 18.7126 4.46622 18.8733 4.72555C19.0339 4.98488 19.0416 5.24888 18.8963 5.51755L16.4893 10.2465C17.1339 10.3025 17.6733 10.5699 18.1073 11.0485C18.5406 11.5265 18.7573 12.0905 18.7573 12.7405C18.7573 13.4312 18.5173 14.0205 18.0373 14.5085C17.5559 14.9965 16.9709 15.2405 16.2823 15.2405C15.5816 15.2405 14.9899 14.9965 14.5073 14.5085C14.0246 14.0205 13.7833 13.4312 13.7833 12.7405C13.7833 12.4165 13.8376 12.1169 13.9463 11.8415C14.0556 11.5662 14.2109 11.3209 14.4123 11.1055L9.73228 10.6905L7.23228 14.4205C7.08028 14.6519 6.88695 14.8462 6.65228 15.0035C6.41695 15.1615 6.16761 15.2405 5.90428 15.2405ZM5.91028 14.2155C6.04628 14.2155 6.21095 14.0969 6.40428 13.8595L8.61828 10.5865C7.94228 10.5032 7.39028 10.3232 6.96228 10.0465C6.53362 9.77055 6.20895 9.40188 5.98828 8.94055L5.52728 7.86355V13.8055C5.52728 13.9302 5.56061 14.0295 5.62728 14.1035C5.69395 14.1782 5.78828 14.2155 5.91028 14.2155ZM16.2583 14.2595C16.6916 14.2595 17.0499 14.1139 17.3333 13.8225C17.6166 13.5312 17.7583 13.1769 17.7583 12.7595C17.7583 12.3262 17.6166 11.9679 17.3333 11.6845C17.0499 11.4012 16.6916 11.2595 16.2583 11.2595C15.8416 11.2595 15.4873 11.4012 15.1953 11.6845C14.9033 11.9679 14.7576 12.3262 14.7583 12.7595C14.7583 13.1762 14.9039 13.5305 15.1953 13.8225C15.4866 14.1145 15.8409 14.2602 16.2583 14.2595Z" fill="#253D4E"/>
</svg>
