<svg width="20" height="20" viewBox="0 0 20 20" fill="none" xmlns="http://www.w3.org/2000/svg">
<path d="M13 9.6665V3.63838C13 2.56494 12.1031 1.6665 11 1.6665H2C0.898438 1.6665 0 2.56494 0 3.63838V9.63838C0 10.7665 0.898438 11.6665 2 11.6665L3 11.6668V13.3621C3 13.6121 3.28516 13.7565 3.48438 13.6082L6.07031 11.667L11 11.6634C12.1031 11.6665 13 10.7665 13 9.6665ZM18 5.6665H14V9.6665C14 11.3187 12.6522 12.6662 11 12.6662L8 12.6662V13.6656C8 14.7672 8.89844 15.6375 9.97188 15.6375L13.9031 15.6373L16.4891 17.5785C16.7156 17.754 17 17.6103 17 17.3603V15.6653H18C19.1016 15.6653 20 14.7668 20 13.6934V7.63838C20 6.56338 19.1031 5.6665 18 5.6665Z" fill="#253D4E"/>
</svg>
