<svg width="20" height="20" viewBox="0 0 20 20" fill="none" xmlns="http://www.w3.org/2000/svg">
<path d="M9.50001 0C8.04264 0 6.92028 0.9062 6.92028 1.98975C6.92028 3.0334 6.91046 3.94653 6.91046 3.94653H4.31923C4.27046 3.94653 4.22327 3.95055 4.17674 3.9563H3.45604V5.83252H15.544V3.9563H14.8233C14.7767 3.95055 14.7295 3.94653 14.6808 3.94653H12.0896C12.0896 3.94653 12.1191 3.11993 12.1191 1.99585C12.1191 0.952183 10.9574 0 9.50001 0ZM0 1.90308V20H19V1.90308H12.9806V3.21412H17.2605V18.6865H1.74113V3.21412H6.0194V1.90308H0ZM9.50001 1.92748C9.97747 1.92748 10.3632 2.21382 10.3632 2.56835C10.3632 2.92353 9.97747 3.21043 9.50001 3.21043C9.02256 3.21043 8.63681 2.92352 8.63681 2.56835C8.63681 2.21383 9.02256 1.92748 9.50001 1.92748ZM3.45604 7.1045V7.74658H4.31923V7.1045H3.45604ZM6.04724 7.1167V7.75878H15.544V7.1167H6.04724ZM3.45604 9.52637V10.1685H4.31923V9.52637H3.45604ZM6.04724 9.53857V10.1819H15.544V9.53857H6.04724ZM3.45604 11.9483V12.5903H4.31923V11.9483H3.45604ZM6.04724 11.9617V12.6038H15.544V11.9617H6.04724ZM3.45604 14.3713V15.0134H4.31923V14.3713H3.45604ZM6.04724 14.3848V15.0269H15.544V14.3848H6.04724ZM3.45604 16.7932V17.4353H4.31923V16.7932H3.45604ZM6.04724 16.8066V17.4487H15.544V16.8066H6.04724Z" fill="#253D4E"/>
</svg>
