<svg width="34" height="34" viewBox="0 0 34 34" fill="none" xmlns="http://www.w3.org/2000/svg">
<path d="M16.292 19.8333C22.157 19.8333 26.917 22.0575 26.917 24.7916V28.3333H5.66699V24.7916C5.66699 22.0575 10.427 19.8333 16.292 19.8333ZM25.5003 24.7916C25.5003 22.8366 21.3778 21.25 16.292 21.25C11.2062 21.25 7.08366 22.8366 7.08366 24.7916V26.9166H25.5003V24.7916ZM16.292 7.08331C17.607 7.08331 18.8682 7.60571 19.7981 8.53558C20.7279 9.46544 21.2503 10.7266 21.2503 12.0416C21.2503 13.3567 20.7279 14.6178 19.7981 15.5477C18.8682 16.4776 17.607 17 16.292 17C14.977 17 13.7158 16.4776 12.7859 15.5477C11.8561 14.6178 11.3337 13.3567 11.3337 12.0416C11.3337 10.7266 11.8561 9.46544 12.7859 8.53558C13.7158 7.60571 14.977 7.08331 16.292 7.08331ZM16.292 8.49998C15.3527 8.49998 14.4518 8.87312 13.7877 9.53731C13.1235 10.2015 12.7503 11.1023 12.7503 12.0416C12.7503 12.981 13.1235 13.8818 13.7877 14.546C14.4518 15.2102 15.3527 15.5833 16.292 15.5833C17.2313 15.5833 18.1321 15.2102 18.7963 14.546C19.4605 13.8818 19.8337 12.981 19.8337 12.0416C19.8337 11.1023 19.4605 10.2015 18.7963 9.53731C18.1321 8.87312 17.2313 8.49998 16.292 8.49998Z" fill="#253D4E"/>
</svg>
