<svg width="34" height="34" viewBox="0 0 34 34" fill="none" xmlns="http://www.w3.org/2000/svg">
<path d="M10.4512 26.7807C9.88075 26.7807 9.41325 26.5828 9.0487 26.1871C8.68414 25.7914 8.50139 25.3092 8.50045 24.7407V13.1708L6.1332 7.6826H3.48828V6.26593H7.09228L9.26545 11.3333H27.8252C28.2625 11.3333 28.5949 11.517 28.8225 11.8844C29.0501 12.2518 29.061 12.6258 28.8551 13.0064L25.4452 19.7058C26.3585 19.7852 27.1225 20.1639 27.7374 20.842C28.3513 21.5192 28.6582 22.3182 28.6582 23.239C28.6582 24.2175 28.3182 25.0523 27.6382 25.7437C26.9563 26.435 26.1276 26.7807 25.1519 26.7807C24.1593 26.7807 23.3211 26.435 22.6374 25.7437C21.9536 25.0523 21.6117 24.2175 21.6117 23.239C21.6117 22.78 21.6887 22.3555 21.8426 21.9654C21.9975 21.5754 22.2176 21.2278 22.5028 20.9228L15.8728 20.3348L12.3311 25.619C12.1158 25.9467 11.8419 26.222 11.5094 26.4449C11.1761 26.6688 10.8243 26.7807 10.4512 26.7807ZM23.8699 19.6563L27.3775 12.75H9.86328L11.6809 17C11.8745 17.4722 12.1913 17.868 12.6314 18.1872C13.0716 18.5064 13.6179 18.6981 14.2705 18.7623L23.8699 19.6563ZM10.4583 25.3286C10.6509 25.3286 10.8842 25.1605 11.1581 24.8243L14.2946 20.1875C13.3369 20.0695 12.5549 19.8145 11.9486 19.4225C11.3413 19.0315 10.8814 18.5092 10.5688 17.8557L9.91712 16.3299V24.7478C9.91712 24.9244 9.96434 25.0651 10.0588 25.1699C10.1532 25.2757 10.2854 25.3286 10.4583 25.3286ZM25.1194 25.3909C25.7333 25.3909 26.2409 25.1846 26.6423 24.7718C27.0437 24.3591 27.2444 23.8572 27.2444 23.2659C27.2444 22.652 27.0437 22.1444 26.6423 21.743C26.2409 21.3416 25.7333 21.1409 25.1194 21.1409C24.5291 21.1409 24.0271 21.3416 23.6134 21.743C23.1998 22.1444 22.9934 22.652 22.9944 23.2659C22.9944 23.8562 23.2007 24.3582 23.6134 24.7718C24.0262 25.1855 24.5281 25.3919 25.1194 25.3909Z" fill="#253D4E"/>
</svg>
