<svg width="34" height="34" viewBox="0 0 34 34" fill="none" xmlns="http://www.w3.org/2000/svg">
<path d="M24.084 14.1667C26.4312 14.1667 28.334 12.2639 28.334 9.91669C28.334 7.56948 26.4312 5.66669 24.084 5.66669C21.7368 5.66669 19.834 7.56948 19.834 9.91669C19.834 12.2639 21.7368 14.1667 24.084 14.1667Z" stroke="#253D4E" stroke-width="1.3" stroke-linecap="round" stroke-linejoin="round"/>
<path d="M9.91699 28.3334C12.2642 28.3334 14.167 26.4306 14.167 24.0834C14.167 21.7362 12.2642 19.8334 9.91699 19.8334C7.56978 19.8334 5.66699 21.7362 5.66699 24.0834C5.66699 26.4306 7.56978 28.3334 9.91699 28.3334Z" stroke="#253D4E" stroke-width="1.3" stroke-linecap="round" stroke-linejoin="round"/>
<path d="M19.8337 19.8334H28.3337V26.9167C28.3337 27.2924 28.1844 27.6527 27.9187 27.9184C27.6531 28.1841 27.2927 28.3334 26.917 28.3334H21.2503C20.8746 28.3334 20.5143 28.1841 20.2486 27.9184C19.9829 27.6527 19.8337 27.2924 19.8337 26.9167V19.8334ZM5.66699 5.66669H14.167V12.75C14.167 13.1257 14.0177 13.4861 13.7521 13.7518C13.4864 14.0174 13.126 14.1667 12.7503 14.1667H7.08366C6.70794 14.1667 6.3476 14.0174 6.08192 13.7518C5.81625 13.4861 5.66699 13.1257 5.66699 12.75V5.66669Z" stroke="#253D4E" stroke-width="1.3" stroke-linecap="round" stroke-linejoin="round"/>
</svg>
